<svg width="1729" height="1735" viewBox="0 0 1729 1735" fill="none" xmlns="http://www.w3.org/2000/svg">
<g clip-path="url(#clip0_6_17)">
<path d="M436.187 1015.39V1156.9H264.886C181.983 1157.47 181.879 1263.93 264.886 1263.76H489.577C522.419 1263.93 542.984 1237.39 543.036 1207.6V1015.39C542.984 934.811 436.291 934.811 436.187 1015.39Z" fill="#3622E3"/>
<path d="M302.861 1133.1C358.262 1132.9 403.277 1087.94 403.537 1032.42C403.277 976.87 358.262 931.862 302.861 931.741C247.182 931.862 202.185 976.87 202.271 1032.42C202.185 1087.96 247.165 1132.91 302.861 1133.1Z" fill="#3622E3"/>
<path d="M1547.56 1122.7L1199.04 1122.73V1079.42C1199.15 1009.53 1151.58 957.531 1070.61 957.722H595.473V1261.88L1547.37 1261.74C1585.76 1261.81 1616.92 1230.77 1617.04 1192.3C1617.04 1153.88 1585.97 1122.78 1547.56 1122.7Z" fill="#3622E3"/>
<path d="M147.026 1318.37V769.713H0.364072L0 1734.61H147.026V1457.06H1555.17V1734.61H1703.03V1318.37H147.026Z" fill="#3622E3"/>
<path d="M765.509 675.882C597.276 675.882 460.394 538.986 460.394 370.714C460.394 202.425 597.276 65.5466 765.509 65.5466C933.759 65.5466 1070.61 202.443 1070.61 370.714C1070.61 538.968 933.759 675.882 765.509 675.882ZM765.509 108.074C620.72 108.074 502.947 225.892 502.947 370.714C502.947 515.537 620.72 633.355 765.509 633.355C910.281 633.355 1028.07 515.537 1028.07 370.714C1028.07 225.892 910.281 108.074 765.509 108.074Z" fill="#3622E3"/>
<path d="M361.262 721.184C293.168 721.184 237.766 665.753 237.766 597.626C237.766 529.499 293.168 474.084 361.262 474.084C429.356 474.084 484.774 529.499 484.774 597.626C484.774 665.753 429.356 721.184 361.262 721.184ZM361.262 514.704C315.554 514.704 278.342 551.907 278.342 597.626C278.342 643.362 315.554 680.565 361.262 680.565C406.97 680.565 444.181 643.362 444.181 597.626C444.181 551.907 406.97 514.704 361.262 514.704Z" fill="#3622E3"/>
<path d="M473.087 900.903C424.466 900.903 384.931 861.324 384.931 812.709C384.931 764.111 424.466 724.549 473.087 724.549C521.691 724.549 561.226 764.111 561.226 812.709C561.244 861.324 521.691 900.903 473.087 900.903ZM473.087 763.261C445.811 763.261 423.616 785.444 423.616 812.709C423.616 839.991 445.811 862.209 473.087 862.209C500.346 862.209 522.541 840.008 522.541 812.709C522.541 785.427 500.346 763.261 473.087 763.261Z" fill="#3622E3"/>
<path d="M1691.36 133.83C1670.61 133.83 1653.84 150.584 1653.84 171.31V205.218L1591 26.9216C1583.78 6.43829 1561.29 -4.29765 1540.8 2.84808C1520.23 10.1499 1509.5 32.5928 1516.69 53.1281L1583.84 243.583L1438.42 19.6194C1425.42 -0.30888 1398.75 -5.99762 1378.76 6.92366C1358.78 19.9317 1353.11 46.6588 1366.03 66.6564L1481.82 244.831L1616.43 320.174C1623.7 324.25 1626.27 333.39 1622.24 340.657C1619.47 345.496 1614.37 348.288 1609.1 348.288C1606.66 348.288 1604.14 347.681 1601.82 346.398L1525.73 303.975C1501.11 289.319 1447.8 265.887 1398.45 274.23C1357.53 281.185 1320.37 302.119 1294.14 334.465C1279.28 352.746 1282.09 379.629 1300.38 394.441C1318.66 409.27 1345.5 406.477 1360.34 388.197C1373.35 372.275 1391.6 361.695 1411.87 358.452C1433.86 354.983 1455.73 360.221 1473.76 373.298C1491.66 386.306 1503.57 405.61 1507.09 427.498C1514.3 472.749 1483.37 515.502 1438.11 522.735C1393.01 530.019 1350.01 498.99 1342.81 453.67C1339.06 430.464 1317.13 414.803 1293.96 418.323C1270.71 421.966 1254.9 443.871 1258.59 467.147C1266.67 517.6 1296.63 559.087 1337.1 583.924L1503.81 710.171V830.955H1728.85V171.293C1728.9 150.584 1712.1 133.83 1691.36 133.83Z" fill="#3622E3"/>
<path d="M1083.18 407.622C1083.18 401.985 1095.65 400.095 1099.79 400.095H1296.72C1300.83 400.095 1304.28 403.477 1304.28 407.622C1304.28 411.75 1300.85 415.097 1296.72 415.097H1099.81C1095.65 415.115 1083.18 412.877 1083.18 407.622Z" fill="#3622E3"/>
</g>
<defs>
<clipPath id="clip0_6_17">
<rect width="1728.85" height="1734.61" fill="white"/>
</clipPath>
</defs>
</svg>
